<?xml version="1.0" encoding="UTF-8" standalone="no"?>
<svg width="48px" height="48px" viewBox="0 0 48 48" version="1.1" xmlns="http://www.w3.org/2000/svg" xmlns:xlink="http://www.w3.org/1999/xlink">
    <!-- Generator: Sketch 41.2 (35397) - http://www.bohemiancoding.com/sketch -->
    <title>ic_flow</title>
    <desc>Created with Sketch.</desc>
    <defs></defs>
    <g id="Styleguide" stroke="none" stroke-width="1" fill="none" fill-rule="evenodd">
        <g transform="translate(-103.000000, -2329.000000)" id="CUSTOM-ICONS" fill="#FFFFFF">
            <g transform="translate(100.000000, 2236.000000)">
                <g id="Content" transform="translate(0.000000, 93.000000)">
                    <g id="row" transform="translate(3.000000, 0.000000)">
                        <g id="Group-6">
                            <g id="ic_flow">
                                <path d="M22,36 L22,30 L26,30 L26,36 L32,36 L24,44 L16,36 L22,36 Z M24,14 C26.2,14 28,12.2 28,10 C28,7.8 26.2,6 24,6 C21.8,6 20,7.8 20,10 C20,12.2 21.8,14 24,14 Z M24,18 C21.8,18 20,19.8 20,22 C20,24.2 21.8,26 24,26 C26.2,26 28,24.2 28,22 C28,19.8 26.2,18 24,18 Z" id="Combined-Shape"></path>
                            </g>
                        </g>
                    </g>
                </g>
            </g>
        </g>
    </g>
</svg>