<?xml version="1.0" encoding="UTF-8" standalone="no"?>
<svg width="160px" height="84px" viewBox="0 0 160 84" version="1.1" xmlns="http://www.w3.org/2000/svg" xmlns:xlink="http://www.w3.org/1999/xlink">
    <!-- Generator: Sketch 41.2 (35397) - http://www.bohemiancoding.com/sketch -->
    <title>select-app-empty-state</title>
    <desc>Created with Sketch.</desc>
    <defs></defs>
    <g id="Styleguide" stroke="none" stroke-width="1" fill="none" fill-rule="evenodd">
        <g transform="translate(-100.000000, -2475.000000)" id="CUSTOM-ICONS">
            <g transform="translate(100.000000, 2236.000000)">
                <g id="Content" transform="translate(0.000000, 93.000000)">
                    <g id="row" transform="translate(0.000000, 146.000000)">
                        <g id="select-app-empty-state">
                            <rect id="Base" fill="#1A91EB" x="0" y="0" width="160" height="84" rx="4"></rect>
                            <path d="M10,11.991617 C10,10.8916773 10.8892617,10 12.0017433,10 L39.9982567,10 C41.103789,10 42,10.8978404 42,11.991617 L42,38.008383 C42,39.1083227 41.1107383,40 39.9982567,40 L12.0017433,40 C10.896211,40 10,39.1021596 10,38.008383 L10,11.991617 Z M46,11.991617 C46,10.8916773 46.8892617,10 48.0017433,10 L75.9982567,10 C77.103789,10 78,10.8978404 78,11.991617 L78,38.008383 C78,39.1083227 77.1107383,40 75.9982567,40 L48.0017433,40 C46.896211,40 46,39.1021596 46,38.008383 L46,11.991617 Z M82,11.991617 C82,10.8916773 82.8892617,10 84.0017433,10 L111.998257,10 C113.103789,10 114,10.8978404 114,11.991617 L114,38.008383 C114,39.1083227 113.110738,40 111.998257,40 L84.0017433,40 C82.896211,40 82,39.1021596 82,38.008383 L82,11.991617 Z M118,11.991617 C118,10.8916773 118.889262,10 120.001743,10 L147.998257,10 C149.103789,10 150,10.8978404 150,11.991617 L150,38.008383 C150,39.1083227 149.110738,40 147.998257,40 L120.001743,40 C118.896211,40 118,39.1021596 118,38.008383 L118,11.991617 Z M10,45.991617 C10,44.8916773 10.8892617,44 12.0017433,44 L39.9982567,44 C41.103789,44 42,44.8978404 42,45.991617 L42,72.008383 C42,73.1083227 41.1107383,74 39.9982567,74 L12.0017433,74 C10.896211,74 10,73.1021596 10,72.008383 L10,45.991617 Z M46,45.991617 C46,44.8916773 46.8892617,44 48.0017433,44 L75.9982567,44 C77.103789,44 78,44.8978404 78,45.991617 L78,72.008383 C78,73.1083227 77.1107383,74 75.9982567,74 L48.0017433,74 C46.896211,74 46,73.1021596 46,72.008383 L46,45.991617 Z M82,45.991617 C82,44.8916773 82.8892617,44 84.0017433,44 L111.998257,44 C113.103789,44 114,44.8978404 114,45.991617 L114,72.008383 C114,73.1083227 113.110738,74 111.998257,74 L84.0017433,74 C82.896211,74 82,73.1021596 82,72.008383 L82,45.991617 Z M118,45.991617 C118,44.8916773 118.889262,44 120.001743,44 L147.998257,44 C149.103789,44 150,44.8978404 150,45.991617 L150,72.008383 C150,73.1083227 149.110738,74 147.998257,74 L120.001743,74 C118.896211,74 118,73.1021596 118,72.008383 L118,45.991617 Z" id="Combined-Shape" fill-opacity="0.300000012" fill="#FFFFFF"></path>
                            <g id="Plus" transform="translate(52.000000, 14.000000)">
                                <circle id="Base" fill="#FFFFFF" cx="28" cy="28" r="28"></circle>
                                <path d="M30,33 L21.5084085,33 C20.1154175,33 19,34.1236646 19,35.5097752 L19,36.4902248 C19,37.8714459 20.1230528,39 21.5084085,39 L33.4915915,39 C34.8845825,39 36,37.8763354 36,36.4902248 L36,35.7585706 L36,14.9926339 C36,13.3389342 34.6568542,12 33,12 C31.3465171,12 30,13.3398479 30,14.9926339 L30,33 Z" fill="#1A91EB" transform="translate(27.500000, 25.500000) rotate(-315.000000) translate(-27.500000, -25.500000) "></path>
                            </g>
                        </g>
                    </g>
                </g>
            </g>
        </g>
    </g>
</svg>