<?xml version="1.0" encoding="UTF-8" standalone="no"?>
<svg width="48px" height="48px" viewBox="0 0 48 48" version="1.1" xmlns="http://www.w3.org/2000/svg" xmlns:xlink="http://www.w3.org/1999/xlink">
    <!-- Generator: Sketch 41.2 (35397) - http://www.bohemiancoding.com/sketch -->
    <title>ic_sort_desc</title>
    <desc>Created with Sketch.</desc>
    <defs></defs>
    <g id="Styleguide" stroke="none" stroke-width="1" fill="none" fill-rule="evenodd">
        <g transform="translate(-523.000000, -2329.000000)" id="CUSTOM-ICONS" fill="#273142">
            <g transform="translate(100.000000, 2236.000000)">
                <g id="Content" transform="translate(0.000000, 93.000000)">
                    <g id="row" transform="translate(3.000000, 0.000000)">
                        <g id="Group-6-Copy-2" transform="translate(420.000000, 0.000000)">
                            <g id="ic_sort_desc">
                                <path d="M22,36 L30,36 L30,32 L22,32 L22,36 L22,36 Z M22,12 L22,16 L46,16 L46,12 L22,12 L22,12 Z M22,26 L38,26 L38,22 L22,22 L22,26 L22,26 Z M18,30 L12,30 L12,10 L8,10 L8,30 L2,30 L10,38 L18,30 L18,30 Z" id="Shape"></path>
                            </g>
                        </g>
                    </g>
                </g>
            </g>
        </g>
    </g>
</svg>